<svg xmlns="http://www.w3.org/2000/svg" xmlns:xlink="http://www.w3.org/1999/xlink" viewBox="0 0 79.76 95.77"><defs><style>.cls-1{fill:url(#Degradado_sin_nombre_390);}.cls-2{fill:url(#Degradado_sin_nombre_3);}</style><linearGradient id="Degradado_sin_nombre_390" x1="67.76" y1="107.05" x2="21.09" y2="64.34" gradientUnits="userSpaceOnUse"><stop offset="0" stop-color="#9e3895"/><stop offset="1" stop-color="#e99352"/></linearGradient><linearGradient id="Degradado_sin_nombre_3" x1="33.47" y1="56.73" x2="-12.09" y2="15.04" gradientUnits="userSpaceOnUse"><stop offset="0" stop-color="#f8b21e"/><stop offset="0.53" stop-color="#f9c521"/><stop offset="1" stop-color="#f9d123"/></linearGradient></defs><g id="Capa_2" data-name="Capa 2"><g id="Layer_1" data-name="Layer 1"><path class="cls-1" d="M78.88,90.67,52.09,63.83a4,4,0,0,0-2.43-1c-5.58,0-11.15,0-16.73,0a1.4,1.4,0,0,1-.92-.19H22.62q0,9.9-.05,19.81V93.62a2.15,2.15,0,0,0,2.14,2.15H76.77A3,3,0,0,0,78.88,90.67ZM56.55,85.76H32.94c-.64,0-1.33.19-1.32-.92l.17-10.78a2.14,2.14,0,0,1,2.14-2.11h12.9a3.13,3.13,0,0,1,2,.78l9.28,9.39A2.13,2.13,0,0,1,56.55,85.76Z"/><path class="cls-2" d="M0,3V55.05a2.14,2.14,0,0,0,2.15,2.14H13.3l19.8,0V47.75a1.49,1.49,0,0,1-.19-.92Q33,38.46,33,30.1a4,4,0,0,0-1-2.43L5.09.88A3,3,0,0,0,0,3Zm13.65,18.7L23,31a3.08,3.08,0,0,1,.77,2l0,12.9A2.14,2.14,0,0,1,21.72,48l-10.78.17c-1.12,0-.93-.68-.93-1.32V23.21A2.14,2.14,0,0,1,13.65,21.69Z"/></g></g></svg>