<?xml version="1.0" encoding="UTF-8"?><svg id="Layer_2" xmlns="http://www.w3.org/2000/svg" xmlns:xlink="http://www.w3.org/1999/xlink" viewBox="0 0 83.5 99.18"><defs><linearGradient id="linear-gradient" x1="69.6" y1="101.8" x2="-14.12" y2="25.19" gradientUnits="userSpaceOnUse"><stop offset="0" stop-color="#8d3b96"/><stop offset=".12" stop-color="#a3537d"/><stop offset=".61" stop-color="#f8b21e"/><stop offset=".82" stop-color="#f8c421"/><stop offset="1" stop-color="#f9d123"/></linearGradient></defs><g id="Layer_1-2"><path d="m82.13,99.18H24.56c-.29,0-.52-.24-.52-.53,0-4.31,0-8.54,0-12.77.03-15.38.06-30.75.12-46.13,0-1.34-.41-2.31-1.4-3.28l-12.63-13.16c-.33-.34-.9-.1-.9.37,0,14.26,0,24.97-.03,39.44,0,.93.36,1.11,1.18,1.1,3.38-.04,4.75,0,8.13-.05,1.56.04,1.42,2.33,1.4,3.35-.03,1.54.01,3.08.08,4.62.04.88-.21,1.26-1.19,1.25-5.83-.04-11.67-.03-17.5,0-.96,0-1.27-.26-1.26-1.28C.05,50.01.04,27.88.05,5.76.05,4.92,0,2.23,0,.52,0,.06.54-.17.88.14c1.07.98,2.72,2.62,2.81,2.71,10.25,10.25,18.25,18.19,28.52,28.42,1.1,1.09,1.02,4.45,1.01,5.98-.05,9.29,0,18.58-.03,27.88,0,.96.27,1.16,1.2,1.15,5.58-.06,11.15-.06,16.73-.03.78,0,1.87.46,2.42,1.01l29.55,29.6c.86.86.25,2.33-.97,2.33Zm-20.25-10c.46,0,.7-.56.37-.89l-12-12.15c-.47-.46-1.3-.77-1.96-.77h-14.49c-.29-.01-.52.22-.52.5l-.19,12.37c-.02,1.12.67.93,1.32.93h27.48Z" style="fill:url(#linear-gradient);"/></g></svg>